<svg width="40" height="40" viewBox="0 0 40 40" fill="none" xmlns="http://www.w3.org/2000/svg">
<path d="M0 20C0 8.95431 8.95431 0 20 0H40V40H20C8.95431 40 0 31.0457 0 20V20Z" fill="white"/>
<path d="M34.71 27.29L31.31 23.9C32.407 22.5025 33.0022 20.7767 33 19C33 17.4178 32.5308 15.871 31.6518 14.5554C30.7727 13.2398 29.5233 12.2145 28.0615 11.609C26.5997 11.0035 24.9911 10.845 23.4393 11.1537C21.8874 11.4624 20.462 12.2243 19.3431 13.3431C18.2243 14.462 17.4624 15.8874 17.1537 17.4393C16.845 18.9911 17.0035 20.5997 17.609 22.0615C18.2145 23.5233 19.2398 24.7727 20.5554 25.6518C21.871 26.5308 23.4178 27 25 27C26.7767 27.0022 28.5025 26.407 29.9 25.31L33.29 28.71C33.383 28.8037 33.4936 28.8781 33.6154 28.9289C33.7373 28.9797 33.868 29.0058 34 29.0058C34.132 29.0058 34.2627 28.9797 34.3846 28.9289C34.5064 28.8781 34.617 28.8037 34.71 28.71C34.8037 28.617 34.8781 28.5064 34.9289 28.3846C34.9797 28.2627 35.0058 28.132 35.0058 28C35.0058 27.868 34.9797 27.7373 34.9289 27.6154C34.8781 27.4936 34.8037 27.383 34.71 27.29V27.29ZM19 19C19 17.8133 19.3519 16.6533 20.0112 15.6666C20.6705 14.6799 21.6075 13.9109 22.7039 13.4567C23.8003 13.0026 25.0067 12.8838 26.1705 13.1153C27.3344 13.3468 28.4035 13.9182 29.2426 14.7574C30.0818 15.5965 30.6532 16.6656 30.8847 17.8295C31.1162 18.9933 30.9974 20.1997 30.5433 21.2961C30.0892 22.3925 29.3201 23.3295 28.3334 23.9888C27.3467 24.6481 26.1867 25 25 25C23.4087 25 21.8826 24.3679 20.7574 23.2426C19.6321 22.1174 19 20.5913 19 19Z" fill="#A6AAB5"/>
</svg>
