<svg width="112" height="33" viewBox="0 0 112 33" fill="none" xmlns="http://www.w3.org/2000/svg">
<path d="M28.36 24.144C27.896 24.144 27.52 24 27.232 23.712C26.96 23.424 26.824 23.048 26.824 22.584V8.544C26.824 8.08 26.952 7.72 27.208 7.464C27.48 7.208 27.848 7.08 28.312 7.08H36.736C37.712 7.08 38.2 7.496 38.2 8.328C38.2 9.144 37.712 9.552 36.736 9.552H29.872V14.16H36.256C37.232 14.16 37.72 14.576 37.72 15.408C37.72 16.224 37.232 16.632 36.256 16.632H29.872V22.584C29.872 23.048 29.736 23.424 29.464 23.712C29.192 24 28.824 24.144 28.36 24.144ZM49.2074 20.784C49.4794 20.784 49.6954 20.888 49.8554 21.096C50.0314 21.304 50.1194 21.584 50.1194 21.936C50.1194 22.432 49.8234 22.848 49.2314 23.184C48.6874 23.488 48.0714 23.736 47.3834 23.928C46.6954 24.104 46.0394 24.192 45.4154 24.192C43.5274 24.192 42.0314 23.648 40.9274 22.56C39.8234 21.472 39.2714 19.984 39.2714 18.096C39.2714 16.896 39.5114 15.832 39.9914 14.904C40.4714 13.976 41.1434 13.256 42.0074 12.744C42.8874 12.232 43.8794 11.976 44.9834 11.976C46.0394 11.976 46.9594 12.208 47.7434 12.672C48.5274 13.136 49.1354 13.792 49.5674 14.64C49.9994 15.488 50.2154 16.488 50.2154 17.64C50.2154 18.328 49.9114 18.672 49.3034 18.672H42.2234C42.3194 19.776 42.6314 20.592 43.1594 21.12C43.6874 21.632 44.4554 21.888 45.4634 21.888C45.9754 21.888 46.4234 21.824 46.8074 21.696C47.2074 21.568 47.6554 21.392 48.1514 21.168C48.6314 20.912 48.9834 20.784 49.2074 20.784ZM45.0554 14.088C44.2394 14.088 43.5834 14.344 43.0874 14.856C42.6074 15.368 42.3194 16.104 42.2234 17.064H47.6474C47.6154 16.088 47.3754 15.352 46.9274 14.856C46.4794 14.344 45.8554 14.088 45.0554 14.088ZM61.9574 20.784C62.2294 20.784 62.4454 20.888 62.6054 21.096C62.7814 21.304 62.8694 21.584 62.8694 21.936C62.8694 22.432 62.5734 22.848 61.9814 23.184C61.4374 23.488 60.8214 23.736 60.1334 23.928C59.4454 24.104 58.7894 24.192 58.1654 24.192C56.2774 24.192 54.7814 23.648 53.6774 22.56C52.5734 21.472 52.0214 19.984 52.0214 18.096C52.0214 16.896 52.2614 15.832 52.7414 14.904C53.2214 13.976 53.8934 13.256 54.7574 12.744C55.6374 12.232 56.6294 11.976 57.7334 11.976C58.7894 11.976 59.7094 12.208 60.4934 12.672C61.2774 13.136 61.8854 13.792 62.3174 14.64C62.7494 15.488 62.9654 16.488 62.9654 17.64C62.9654 18.328 62.6614 18.672 62.0534 18.672H54.9734C55.0694 19.776 55.3814 20.592 55.9094 21.12C56.4374 21.632 57.2054 21.888 58.2134 21.888C58.7254 21.888 59.1734 21.824 59.5574 21.696C59.9574 21.568 60.4054 21.392 60.9014 21.168C61.3814 20.912 61.7334 20.784 61.9574 20.784ZM57.8054 14.088C56.9894 14.088 56.3334 14.344 55.8374 14.856C55.3574 15.368 55.0694 16.104 54.9734 17.064H60.3974C60.3654 16.088 60.1254 15.352 59.6774 14.856C59.2294 14.344 58.6054 14.088 57.8054 14.088ZM75.2114 6.96C75.6594 6.96 76.0274 7.088 76.3154 7.344C76.6034 7.6 76.7474 7.936 76.7474 8.352V22.704C76.7474 23.136 76.6114 23.48 76.3394 23.736C76.0674 23.992 75.7074 24.12 75.2594 24.12C74.8114 24.12 74.4514 23.992 74.1794 23.736C73.9074 23.48 73.7714 23.136 73.7714 22.704V22.104C73.4194 22.76 72.9074 23.272 72.2354 23.64C71.5794 24.008 70.8274 24.192 69.9794 24.192C68.9714 24.192 68.0674 23.936 67.2674 23.424C66.4834 22.912 65.8674 22.192 65.4194 21.264C64.9874 20.32 64.7714 19.24 64.7714 18.024C64.7714 16.808 64.9874 15.744 65.4194 14.832C65.8674 13.92 66.4834 13.216 67.2674 12.72C68.0514 12.224 68.9554 11.976 69.9794 11.976C70.8274 11.976 71.5794 12.152 72.2354 12.504C72.8914 12.856 73.3954 13.352 73.7474 13.992V8.304C73.7474 7.904 73.8754 7.584 74.1314 7.344C74.4034 7.088 74.7634 6.96 75.2114 6.96ZM70.7714 21.864C71.7314 21.864 72.4674 21.536 72.9794 20.88C73.5074 20.224 73.7714 19.288 73.7714 18.072C73.7714 16.856 73.5074 15.928 72.9794 15.288C72.4674 14.632 71.7394 14.304 70.7954 14.304C69.8354 14.304 69.0914 14.624 68.5634 15.264C68.0354 15.904 67.7714 16.824 67.7714 18.024C67.7714 19.24 68.0354 20.184 68.5634 20.856C69.0914 21.528 69.8274 21.864 70.7714 21.864Z" fill="#F7F7F7"/>
<path d="M93.7774 11.976C95.0574 11.976 96.0334 12.36 96.7054 13.128C97.3934 13.88 97.7374 15.104 97.7374 16.8V22.704C97.7374 23.168 97.5934 23.528 97.3054 23.784C97.0334 24.024 96.6734 24.144 96.2254 24.144C95.7934 24.144 95.4334 24.024 95.1454 23.784C94.8734 23.528 94.7374 23.168 94.7374 22.704V16.8C94.7374 15.92 94.5774 15.296 94.2574 14.928C93.9534 14.544 93.4814 14.352 92.8414 14.352C92.0574 14.352 91.4334 14.624 90.9694 15.168C90.5054 15.696 90.2734 16.424 90.2734 17.352V22.704C90.2734 23.168 90.1294 23.528 89.8414 23.784C89.5694 24.024 89.2174 24.144 88.7854 24.144C88.3534 24.144 87.9934 24.024 87.7054 23.784C87.4174 23.528 87.2734 23.168 87.2734 22.704V16.8C87.2734 15.92 87.1134 15.296 86.7934 14.928C86.4894 14.544 86.0174 14.352 85.3774 14.352C84.5934 14.352 83.9694 14.624 83.5054 15.168C83.0574 15.696 82.8334 16.424 82.8334 17.352V22.704C82.8334 23.168 82.6894 23.528 82.4014 23.784C82.1134 24.024 81.7534 24.144 81.3214 24.144C80.8894 24.144 80.5294 24.024 80.2414 23.784C79.9694 23.528 79.8334 23.168 79.8334 22.704V13.416C79.8334 12.968 79.9774 12.624 80.2654 12.384C80.5534 12.144 80.9134 12.024 81.3454 12.024C81.7614 12.024 82.0974 12.144 82.3534 12.384C82.6254 12.608 82.7614 12.936 82.7614 13.368V13.944C83.1294 13.304 83.6174 12.816 84.2254 12.48C84.8494 12.144 85.5614 11.976 86.3614 11.976C88.1214 11.976 89.2974 12.712 89.8894 14.184C90.2414 13.512 90.7614 12.976 91.4494 12.576C92.1374 12.176 92.9134 11.976 93.7774 11.976ZM110.075 20.784C110.347 20.784 110.563 20.888 110.723 21.096C110.899 21.304 110.987 21.584 110.987 21.936C110.987 22.432 110.691 22.848 110.099 23.184C109.555 23.488 108.939 23.736 108.251 23.928C107.563 24.104 106.907 24.192 106.283 24.192C104.395 24.192 102.899 23.648 101.795 22.56C100.691 21.472 100.139 19.984 100.139 18.096C100.139 16.896 100.379 15.832 100.859 14.904C101.339 13.976 102.011 13.256 102.875 12.744C103.755 12.232 104.747 11.976 105.851 11.976C106.907 11.976 107.827 12.208 108.611 12.672C109.395 13.136 110.003 13.792 110.435 14.64C110.867 15.488 111.083 16.488 111.083 17.64C111.083 18.328 110.779 18.672 110.171 18.672H103.091C103.187 19.776 103.499 20.592 104.027 21.12C104.555 21.632 105.323 21.888 106.331 21.888C106.843 21.888 107.291 21.824 107.675 21.696C108.075 21.568 108.523 21.392 109.019 21.168C109.499 20.912 109.851 20.784 110.075 20.784ZM105.923 14.088C105.107 14.088 104.451 14.344 103.955 14.856C103.475 15.368 103.187 16.104 103.091 17.064H108.515C108.483 16.088 108.243 15.352 107.795 14.856C107.347 14.344 106.723 14.088 105.923 14.088Z" fill="#FFBC01"/>
<path d="M15.0477 16.2152C13.804 15.0302 13.119 13.5595 13.119 12.0741V11.5807C13.119 9.17143 11.4258 7.09862 9.22054 6.73637C9.24578 6.31304 9.37663 5.90218 9.62129 5.54396C9.97892 5.02013 10.5315 4.6673 11.1772 4.55012C11.5967 4.47385 11.8757 4.06819 11.8006 3.64374C11.7252 3.21929 11.3221 2.93485 10.905 3.0129C9.85159 3.20405 8.94489 3.78765 8.35187 4.65615C7.92268 5.28437 7.69168 6.0084 7.66917 6.75338C6.82371 6.90803 6.02883 7.29263 5.38411 7.88345C4.41563 8.77028 3.86003 10.0368 3.86003 11.3581V12.0741C3.86003 13.5597 3.17511 15.0304 1.93135 16.2154C-2.1218 20.0777 0.64048 26.9733 6.17427 26.9733C6.95743 26.9733 7.73624 26.8157 8.48953 26.5018C14.7225 29.0993 19.9875 20.9232 15.0477 16.2152ZM6.17561 23.8515C3.43306 23.8515 2.01166 20.4284 4.04776 18.4884C4.35791 18.1923 4.84672 18.2075 5.1383 18.5214C5.43066 18.8353 5.41584 19.3294 5.10564 19.625C4.0907 20.5931 4.81985 22.2898 6.17561 22.2898C6.60184 22.2898 6.9472 22.6393 6.9472 23.0707C6.9472 23.502 6.60184 23.8515 6.17561 23.8515Z" fill="#FFBC01"/>
</svg>
