<svg width="40" height="40" viewBox="0 0 40 40" fill="none" xmlns="http://www.w3.org/2000/svg">
<path d="M0 10C0 4.47715 4.47715 0 10 0H40V40H10C4.47715 40 0 35.5228 0 30V10Z" fill="#F7F7F7"/>
<path d="M0 10C0 4.47715 4.47715 0 10 0H30C35.5228 0 40 4.47715 40 10V30C40 35.5228 35.5228 40 30 40H10C4.47715 40 0 35.5228 0 30V10Z" fill="#F7F7F7"/>
<path d="M23.7335 21.4944C25.7956 18.7823 25.1059 15.0268 22.194 13.1067C19.2821 11.1865 15.2499 11.8284 13.1882 14.541C11.1266 17.253 11.8158 21.008 14.7282 22.9282C16.8066 24.2987 19.5545 24.4042 21.7467 23.1984L26.5099 27.6082C27.0242 28.1124 27.8799 28.1326 28.4213 27.6536C28.9627 27.175 28.9844 26.3781 28.4706 25.8738C28.4543 25.8578 28.4386 25.8431 28.4213 25.8279L23.7335 21.4944ZM18.4569 21.9055C16.1558 21.9059 14.2902 20.1698 14.2888 18.0266C14.2883 15.8835 16.1524 14.1459 18.4539 14.145C20.7521 14.1441 22.6167 15.8775 22.6211 18.0179C22.625 20.1615 20.7619 21.9018 18.4599 21.9055C18.4589 21.9055 18.4584 21.9055 18.4569 21.9055Z" fill="#DADADA"/>
</svg>
